<svg width="32" height="32" viewBox="0 0 32 32" fill="none" xmlns="http://www.w3.org/2000/svg">
<path fill-rule="evenodd" clip-rule="evenodd" d="M19.7856 31.5495C26.795 29.849 32 23.5324 32 16C32 7.16344 24.8366 0 16 0C7.16344 0 0 7.16344 0 16C0 23.6855 5.41872 30.1053 12.644 31.6475C12.75 31.5124 12.7959 31.3394 12.7959 31.1793C12.7959 31.0652 12.7932 30.8554 12.7896 30.5809L12.7896 30.5806C12.7829 30.0616 12.7731 29.3117 12.7731 28.5415C8.89521 29.3895 8.08767 26.846 8.08767 26.846C7.46447 25.1975 6.54109 24.7738 6.54109 24.7738C5.27186 23.9025 6.63354 23.9025 6.63354 23.9025C8.04145 23.9967 8.78021 25.3625 8.78021 25.3625C10.0263 27.5289 12.0343 26.9168 12.8421 26.5399C12.9574 25.6215 13.327 24.9857 13.7193 24.6325C10.6264 24.3028 7.3723 23.0783 7.3723 17.6147C7.3723 16.0605 7.92588 14.7889 8.80304 13.7999C8.66465 13.4467 8.17984 11.9864 8.94172 10.0319C8.94172 10.0319 10.1188 9.65504 12.7728 11.4919C13.9091 11.1806 15.0809 11.0222 16.258 11.0209C17.4351 11.0209 18.635 11.1859 19.743 11.4919C22.3973 9.65504 23.5744 10.0319 23.5744 10.0319C24.3363 11.9864 23.8512 13.4467 23.7128 13.7999C24.613 14.7889 25.1438 16.0605 25.1438 17.6147C25.1438 23.0783 21.8897 24.2791 18.7737 24.6325C19.2816 25.0799 19.7199 25.9275 19.7199 27.2699C19.7199 28.5442 19.7097 29.6504 19.7029 30.3848V30.3848L19.7029 30.3853C19.6996 30.7499 19.6971 31.0228 19.6971 31.179C19.6971 31.3026 19.7244 31.4339 19.7856 31.5495Z" fill="black"/>
</svg>
