<svg width="32" height="32" viewBox="0 0 32 32" fill="none" xmlns="http://www.w3.org/2000/svg">
<path fill-rule="evenodd" clip-rule="evenodd" d="M16 32C24.8365 32 32 24.8365 32 16C32 7.16345 24.8365 0 16 0C7.16345 0 0 7.16345 0 16C0 24.8365 7.16345 32 16 32ZM6 10.123C6.0163 9.60498 7.73508 7.62952 8.60748 7.11133C9.37912 7.04407 13.1985 7.00024 15.9999 7C18.8015 6.9996 20.6812 7.01605 23.3927 7.11133C24.2649 7.62939 25.9837 9.60492 26 10.123V10.9806C26 12.0677 24.9844 13.023 24.0623 13.023C22.9552 13.023 22.0325 12.105 22.0325 11.0153C22.0325 12.105 21.1416 13.023 20.0343 13.023C18.9271 13.023 18.0647 12.105 18.0647 11.0153C18.0647 12.105 17.1174 13.023 16.01 13.023H15.99C14.8827 13.023 13.9354 12.105 13.9354 11.0153C13.9354 12.105 13.0731 13.023 11.9657 13.023C10.8584 13.023 9.96753 12.105 9.96753 11.0153C9.96744 12.105 9.04492 13.023 7.93771 13.023C7.01559 13.023 6 12.0676 6 10.9806V10.123ZM13.5317 13.013C13.6844 12.8646 13.8155 12.6957 13.9214 12.511C14.0263 12.6953 14.1563 12.8642 14.3076 13.0128C14.7421 13.4379 15.3259 13.6757 15.9337 13.6751C15.95 13.6751 15.9661 13.6746 15.9821 13.6741L16 13.6735H16.0006L16.0421 13.6748C16.0502 13.675 16.0584 13.6751 16.0666 13.6751C16.6744 13.6757 17.2582 13.4379 17.6927 13.0126C17.8441 12.8641 17.974 12.6952 18.0787 12.5107C18.1846 12.6954 18.3157 12.8643 18.4683 13.0126C18.8863 13.4214 19.4593 13.675 20.0909 13.675C20.6986 13.6757 21.2823 13.4377 21.7167 13.0125C21.8682 12.8641 21.9832 12.7054 22.0886 12.5206L22.0891 12.5209C22.1945 12.7061 22.3412 12.8646 22.493 13.0132C22.9276 13.4382 23.5113 13.6759 24.1189 13.6754C24.1952 13.6754 24.2743 13.6544 24.3383 13.6323C24.4274 14.5596 24.4649 15.4458 24.4781 16.0922L24.4784 16.0958L24.4833 17.0687C24.4808 17.3513 24.4831 17.6848 24.4856 18.0518C24.5005 20.2117 24.5234 23.5306 23.6258 24.4465C21.9986 24.826 19.0042 24.999 16.0003 25H15.9998C12.9958 24.999 10.0015 24.826 8.37427 24.4465C7.47668 23.5306 7.49957 20.2117 7.51443 18.0518C7.51697 17.6848 7.51926 17.3513 7.51678 17.0687C7.51788 16.8182 7.51895 16.6147 7.52005 16.4092L7.5217 16.0959L7.52185 16.0922C7.53513 15.446 7.57272 14.5598 7.66171 13.6324C7.7258 13.6545 7.80502 13.6755 7.88113 13.6755C8.48883 13.6761 9.07254 13.4384 9.50708 13.0134C9.65884 12.8648 9.80557 12.7062 9.91089 12.5211L9.91138 12.5208C10.0168 12.7056 10.1318 12.8643 10.2833 13.0126C10.7177 13.4379 11.3015 13.6758 11.9092 13.6753C12.5408 13.6753 13.1138 13.4218 13.5317 13.013ZM12.2514 14.672L12.2516 14.6712C11.9393 14.6713 10.6895 14.6713 9.8187 17.1182L8.88306 20.475C8.18991 22.9724 9.10492 23.0333 10.2464 23.0356C11.9391 22.9725 12.8764 21.7426 12.8764 20.5129C13.8134 20.6666 14.9065 20.7435 15.9997 20.7435H16.0002C17.0933 20.7433 18.1864 20.6666 19.1234 20.5129C19.1234 21.7426 20.0607 22.9725 21.7535 23.0356C22.8949 23.0333 23.81 22.9723 23.1169 20.475L22.1815 17.1182C21.3106 14.6712 20.0609 14.6712 19.7484 14.6712L19.7486 14.672H19.7475H19.7411C19.0823 14.6733 18.4964 14.6745 17.7709 15.4668C17.1979 15.4067 16.5993 15.3768 16.0002 15.3776H15.9998C15.4007 15.3766 14.8021 15.4067 14.2292 15.4668C13.5038 14.6746 12.9178 14.6734 12.2592 14.672H12.2526H12.2514ZM15.9969 16.5974L15.9998 16.5947C16.0002 16.5947 17.7821 18.2322 18.1023 18.814L16.9364 18.7673V19.7845C16.9364 19.8321 16.4684 19.8127 16.0002 19.791H15.9998C15.5314 19.8127 15.0635 19.8321 15.0635 19.7845V18.7673L13.8976 18.814C14.2104 18.2454 15.9178 16.6704 15.9969 16.5974Z" fill="black"/>
</svg>
