<svg width="32" height="32" viewBox="0 0 32 32" fill="none" xmlns="http://www.w3.org/2000/svg">
<path fill-rule="evenodd" clip-rule="evenodd" d="M16 32C24.8365 32 32 24.8365 32 16C32 7.16345 24.8365 0 16 0C7.16345 0 0 7.16345 0 16C0 24.8365 7.16345 32 16 32ZM18.8599 8.00104C20.2892 8.2439 21.6561 8.66791 22.9308 9.24341C22.9419 9.24811 22.9514 9.25592 22.9568 9.26685C25.2154 12.5356 26.3309 16.223 25.9139 20.468C25.9123 20.4859 25.9028 20.5023 25.8879 20.5132C24.1772 21.7494 22.5201 22.4999 20.8859 22.9973C20.8599 23.0051 20.8315 22.9957 20.8157 22.9738C20.4382 22.4569 20.0952 21.9118 19.7949 21.3394C19.7775 21.3058 19.7933 21.2653 19.8287 21.252C20.3735 21.0497 20.8914 20.8076 21.3896 20.5211C21.4134 20.5074 21.4237 20.4819 21.4202 20.4579C21.4179 20.4421 21.4096 20.427 21.3952 20.4164C21.2896 20.3391 21.1847 20.2579 21.0846 20.1767C21.0657 20.1619 21.0404 20.1588 21.0191 20.1689C17.7846 21.6393 14.2411 21.6393 10.968 20.1689C10.9467 20.1595 10.9214 20.1627 10.9033 20.1775C10.8032 20.2587 10.6983 20.3391 10.5934 20.4164C10.5572 20.443 10.5604 20.4984 10.5998 20.5211C11.098 20.8022 11.616 21.0497 12.1599 21.2527C12.181 21.2607 12.1954 21.278 12.2 21.2979C12.2031 21.3113 12.2016 21.3259 12.1946 21.3394C11.9005 21.9126 11.5576 22.4577 11.1729 22.9746C11.1563 22.9957 11.1288 23.0051 11.1027 22.9973C9.47644 22.4999 7.81934 21.7494 6.10864 20.5132C6.09448 20.5023 6.08423 20.4852 6.08264 20.4672C5.73419 16.7954 6.44452 13.0776 9.03735 9.26605C9.03967 9.26233 9.04242 9.25891 9.04547 9.25586C9.05078 9.25061 9.05713 9.2464 9.06409 9.24341C10.3397 8.66711 11.7066 8.2431 13.1351 8.00104C13.1611 7.99713 13.1871 8.00885 13.2005 8.03149C13.3771 8.33911 13.5789 8.73352 13.7153 9.05597C15.221 8.82953 16.7504 8.82953 18.2876 9.05597C18.424 8.74054 18.6187 8.33911 18.7945 8.03149C18.8079 8.00806 18.8339 7.99634 18.8599 8.00104ZM10.8859 16.248C10.8859 17.3413 11.6979 18.2315 12.6833 18.2315C13.6845 18.2315 14.4807 17.3413 14.4807 16.248C14.4965 15.1626 13.6924 14.2646 12.6833 14.2646C11.6822 14.2646 10.8859 15.1548 10.8859 16.248ZM17.5316 16.248C17.5316 17.3413 18.3436 18.2315 19.329 18.2315C20.338 18.2315 21.1263 17.3413 21.1263 16.248C21.1421 15.1626 20.338 14.2646 19.329 14.2646C18.3278 14.2646 17.5316 15.1548 17.5316 16.248Z" fill="black"/>
</svg>
