<svg width="37" height="33" viewBox="0 0 37 33" fill="none" xmlns="http://www.w3.org/2000/svg">
<path d="M4.56433 24.3312H32.3161V26.1731C32.3161 27.4758 31.7986 28.7252 30.8775 29.6463C29.9563 30.5674 28.707 31.0849 27.4043 31.0849H9.47616C8.17346 31.0849 6.92411 30.5674 6.00297 29.6463C5.08182 28.7252 4.56433 27.4758 4.56433 26.1731V24.3312Z" fill="url(#paint0_linear_58_262)" stroke="black" stroke-width="2" stroke-linecap="round" stroke-linejoin="round"/>
<path d="M29.0006 16.8406H32.1934C32.6874 16.8242 33.1796 16.9073 33.6408 17.085C34.1021 17.2628 34.5228 17.5315 34.878 17.8752C35.2332 18.219 35.5155 18.6307 35.7083 19.0858C35.9011 19.541 36.0003 20.0302 36 20.5245C36 21.5341 35.599 22.5023 34.8851 23.2162C34.1712 23.9301 33.203 24.3312 32.1934 24.3312H4.6871C4.19282 24.3315 3.70357 24.2323 3.24843 24.0395C2.79328 23.8467 2.38155 23.5643 2.03782 23.2091C1.69409 22.854 1.42534 22.4332 1.2476 21.972C1.06986 21.5108 0.986755 21.0185 1.00323 20.5245C0.986079 20.0361 1.06966 19.5494 1.24873 19.0947C1.42779 18.64 1.69852 18.227 2.04408 17.8815C2.38964 17.5359 2.8026 17.2652 3.25731 17.0861C3.71202 16.907 4.19871 16.8235 4.6871 16.8406H15.4931" fill="url(#paint1_linear_58_262)"/>
<path d="M29.0006 16.8406H32.1934C32.6874 16.8242 33.1796 16.9073 33.6408 17.085C34.1021 17.2628 34.5228 17.5315 34.878 17.8752C35.2332 18.219 35.5155 18.6307 35.7083 19.0858C35.9011 19.541 36.0003 20.0302 36 20.5245C36 21.5341 35.599 22.5023 34.8851 23.2162C34.1712 23.9301 33.203 24.3312 32.1934 24.3312H4.6871C4.19282 24.3315 3.70357 24.2323 3.24843 24.0395C2.79328 23.8467 2.38155 23.5643 2.03782 23.2091C1.69409 22.854 1.42534 22.4332 1.2476 21.972C1.06986 21.5108 0.986755 21.0185 1.00323 20.5245C0.986079 20.0361 1.06966 19.5494 1.24873 19.0947C1.42779 18.64 1.69852 18.227 2.04408 17.8815C2.38964 17.5359 2.8026 17.2652 3.25731 17.0861C3.71202 16.907 4.19871 16.8235 4.6871 16.8406H15.4931" stroke="black" stroke-width="2" stroke-linecap="round" stroke-linejoin="round"/>
<path d="M36 14.3847C35.9908 15.0325 35.726 15.6505 35.2633 16.1039C35.048 16.3449 34.7825 16.5358 34.4854 16.6631C34.1884 16.7904 33.8671 16.851 33.5441 16.8407H27.1587L22.9837 21.6297L18.8086 16.8407H3.33638C3.01938 16.8411 2.70559 16.7769 2.41421 16.6521C2.12283 16.5272 1.85994 16.3443 1.64161 16.1145C1.42327 15.8847 1.25408 15.6128 1.14432 15.3154C1.03457 15.018 0.986549 14.7013 1.00323 14.3847C0.986549 14.0682 1.03457 13.7515 1.14432 13.4542C1.25408 13.1568 1.42327 12.8849 1.64161 12.655C1.85994 12.4252 2.12283 12.2423 2.41421 12.1174C2.70559 11.9926 3.01938 11.9284 3.33638 11.9288H33.5441C34.1954 11.9288 34.8201 12.1876 35.2807 12.6482C35.7413 13.1087 36 13.7334 36 14.3847Z" fill="white" stroke="black" stroke-width="2" stroke-linecap="round" stroke-linejoin="round"/>
<path d="M15.1247 1H21.8785C24.6793 1 27.3654 2.11261 29.3458 4.09307C31.3263 6.07353 32.439 8.75964 32.439 11.5604H4.56433C4.56433 8.75964 5.67692 6.07353 7.65738 4.09307C9.63785 2.11261 12.3239 1 15.1247 1Z" fill="url(#paint2_linear_58_262)" stroke="black" stroke-width="2" stroke-linecap="round" stroke-linejoin="round"/>
<path d="M11.5637 6.52582L13.0372 8.12217" stroke="black" stroke-width="2" stroke-linecap="round" stroke-linejoin="round"/>
<path d="M24.8256 5.91183L26.422 7.63097" stroke="black" stroke-width="2" stroke-linecap="round" stroke-linejoin="round"/>
<path d="M17.4579 6.64859L19.177 5.05225" stroke="black" stroke-width="2" stroke-linecap="round" stroke-linejoin="round"/>
<defs>
<linearGradient id="paint0_linear_58_262" x1="4.66084" y1="25.3816" x2="8.29516" y2="38.0054" gradientUnits="userSpaceOnUse">
<stop stop-color="#FFA654"/>
<stop offset="1" stop-color="#F26702"/>
</linearGradient>
<linearGradient id="paint1_linear_58_262" x1="36" y1="24.3312" x2="32.9324" y2="10.0024" gradientUnits="userSpaceOnUse">
<stop stop-color="#FFD15C"/>
<stop offset="1" stop-color="#F3AF00"/>
</linearGradient>
<linearGradient id="paint2_linear_58_262" x1="4.66126" y1="2.64241" x2="12.6387" y2="20.4423" gradientUnits="userSpaceOnUse">
<stop stop-color="#FFA654"/>
<stop offset="1" stop-color="#F26702"/>
</linearGradient>
</defs>
</svg>
