<svg width="32" height="32" viewBox="0 0 32 32" fill="none" xmlns="http://www.w3.org/2000/svg">
<path fill-rule="evenodd" clip-rule="evenodd" d="M16 32C24.8365 32 32 24.8365 32 16C32 7.16345 24.8365 0 16 0C7.16345 0 0 7.16345 0 16C0 24.8365 7.16345 32 16 32ZM6 11.123C6.0163 10.605 7.73508 8.62955 8.60748 8.11133C9.37912 8.04404 13.1985 8.00024 15.9999 8C18.8015 7.9996 20.6812 8.01608 23.3927 8.11133C24.2649 8.62939 25.9837 10.6049 26 11.123V11.9806C26 13.0678 24.9844 14.023 24.0623 14.023C22.9552 14.023 22.0325 13.1049 22.0325 12.0154C22.0325 13.1049 21.1416 14.023 20.0343 14.023C18.9271 14.023 18.0647 13.1049 18.0647 12.0154C18.0647 13.1049 17.1174 14.023 16.01 14.023H15.99C14.8827 14.023 13.9354 13.1049 13.9354 12.0154C13.9354 13.1049 13.0731 14.023 11.9657 14.023C10.8584 14.023 9.96753 13.1049 9.96753 12.0154C9.96744 13.1049 9.04492 14.023 7.93771 14.023C7.01559 14.023 6 13.0676 6 11.9806V11.123ZM13.5317 14.013C13.6844 13.8646 13.8155 13.6957 13.9214 13.511L13.9216 13.5108C14.0263 13.6953 14.1563 13.8642 14.3076 14.0127C14.7421 14.4379 15.3259 14.6757 15.9337 14.6751C15.9501 14.6751 15.9663 14.6746 15.9825 14.674L16 14.6735H16.0006L16.0182 14.674C16.0343 14.6746 16.0504 14.6751 16.0666 14.6751C16.6744 14.6757 17.2582 14.4379 17.6927 14.0126C17.8441 13.8641 17.974 13.6952 18.0787 13.5107C18.1846 13.6954 18.3157 13.8643 18.4683 14.0126C18.8863 14.4214 19.4593 14.675 20.0909 14.675C20.6986 14.6756 21.2823 14.4377 21.7167 14.0125C21.8682 13.8641 21.9832 13.7054 22.0886 13.5206L22.0891 13.5209C22.1945 13.7061 22.3412 13.8646 22.493 14.0132C22.9276 14.4382 23.5113 14.6759 24.1189 14.6754C24.1952 14.6754 24.2743 14.6543 24.3383 14.6323C24.4274 15.5597 24.4649 16.4458 24.4781 17.0922L24.4784 17.0958L24.4833 18.0687C24.4808 18.3513 24.4831 18.6848 24.4856 19.0518C24.5005 21.2116 24.5234 24.5306 23.6258 25.4465C21.9986 25.826 19.0042 25.9989 16.0003 26H15.9998C12.9958 25.9989 10.0015 25.826 8.37427 25.4465C7.47668 24.5306 7.49957 21.2116 7.51443 19.0518C7.51697 18.6848 7.51926 18.3513 7.51678 18.0688C7.51843 17.6939 7.52005 17.424 7.5217 17.0959L7.52185 17.0922C7.53513 16.4461 7.57272 15.5598 7.66171 14.6325C7.7258 14.6545 7.80502 14.6755 7.88113 14.6755C8.48883 14.6761 9.07254 14.4384 9.50708 14.0134C9.65884 13.8648 9.80557 13.7062 9.91089 13.5211L9.91138 13.5208C10.0168 13.7055 10.1318 13.8642 10.2833 14.0126C10.7177 14.438 11.3015 14.6759 11.9092 14.6753C12.5408 14.6753 13.1138 14.4218 13.5317 14.013ZM12.2514 15.672L12.2516 15.6712C11.9393 15.6713 10.6895 15.6713 9.8187 18.1183L8.88306 21.475C8.18991 23.9724 9.10492 24.0334 10.2464 24.0356C11.9391 23.9725 12.8764 22.7426 12.8764 21.5129C13.8134 21.6666 14.9065 21.7435 15.9997 21.7435H16.0002C17.0933 21.7434 18.1864 21.6666 19.1234 21.5129C19.1234 22.7426 20.0607 23.9725 21.7535 24.0356C22.8949 24.0334 23.81 23.9723 23.1169 21.475L22.1815 18.1182C21.3106 15.6712 20.0609 15.6712 19.7484 15.6712L19.7486 15.672H19.7475H19.7411C19.0824 15.6733 18.4964 15.6745 17.7709 16.4668C17.1979 16.4067 16.5993 16.3767 16.0002 16.3776H15.9998C15.4007 16.3767 14.8021 16.4067 14.2292 16.4668C13.5037 15.6746 12.9178 15.6734 12.259 15.672H12.2526H12.2514ZM15.9998 17.5947V17.5942H16.0002V17.5947C16.0002 17.5947 17.7821 19.2322 18.1023 19.814L16.9364 19.7673V20.7845C16.9364 20.8321 16.4684 20.8127 16.0002 20.791H15.9998C15.5314 20.8127 15.0635 20.8321 15.0635 20.7845V19.7673L13.8976 19.814C14.2112 19.2441 15.9257 17.6631 15.9974 17.5969L15.9998 17.5947Z" fill="white"/>
</svg>
