<svg width="32" height="32" viewBox="0 0 32 32" fill="none" xmlns="http://www.w3.org/2000/svg">
<path fill-rule="evenodd" clip-rule="evenodd" d="M16 32C24.8366 32 32 24.8366 32 16C32 7.16344 24.8366 0 16 0C7.16344 0 0 7.16344 0 16C0 24.8366 7.16344 32 16 32ZM18.8599 8.00102C20.2892 8.24387 21.6561 8.66789 22.9308 9.24342C22.9419 9.2481 22.9513 9.25592 22.9568 9.26684C25.2154 12.5357 26.3309 16.223 25.9139 20.468C25.9123 20.4859 25.9028 20.5023 25.8879 20.5133C24.1772 21.7494 22.5201 22.4998 20.8859 22.9973C20.8599 23.0051 20.8315 22.9957 20.8157 22.9738C20.4381 22.4569 20.0952 21.9118 19.7949 21.3394C19.7775 21.3059 19.7933 21.2653 19.8288 21.252C20.3735 21.0497 20.8914 20.8076 21.3897 20.5211C21.4291 20.4984 21.4314 20.443 21.3952 20.4164C21.2896 20.3391 21.1847 20.2579 21.0846 20.1767C21.0657 20.1619 21.0404 20.1587 21.0191 20.1689C17.7846 21.6393 14.2411 21.6393 10.9679 20.1689C10.9466 20.1595 10.9214 20.1626 10.9033 20.1775C10.8032 20.2587 10.6983 20.3391 10.5935 20.4164C10.5572 20.443 10.5604 20.4984 10.5998 20.5211C11.098 20.8022 11.6159 21.0497 12.1599 21.2528C12.1954 21.266 12.2119 21.3059 12.1946 21.3394C11.9005 21.9126 11.5576 22.4577 11.1729 22.9746C11.1563 22.9957 11.1288 23.0051 11.1027 22.9973C9.47642 22.4998 7.81934 21.7494 6.10866 20.5133C6.09447 20.5023 6.08423 20.4852 6.08265 20.4672C5.73421 16.7954 6.44449 13.0776 9.03732 9.26606C9.04361 9.25592 9.05307 9.2481 9.06411 9.24342C10.3396 8.66712 11.7066 8.2431 13.135 8.00102C13.1611 7.99711 13.1871 8.00883 13.2005 8.03147C13.3771 8.33914 13.5789 8.7335 13.7153 9.05599C15.221 8.82954 16.7503 8.82954 18.2876 9.05599C18.4239 8.74051 18.6187 8.33914 18.7945 8.03147C18.8079 8.00805 18.8339 7.99633 18.8599 8.00102ZM10.8859 16.248C10.8859 17.3413 11.6979 18.2315 12.6834 18.2315C13.6845 18.2315 14.4807 17.3413 14.4807 16.248C14.4965 15.1626 13.6924 14.2646 12.6834 14.2646C11.6822 14.2646 10.8859 15.1548 10.8859 16.248ZM17.5316 16.248C17.5316 17.3413 18.3435 18.2315 19.329 18.2315C20.338 18.2315 21.1264 17.3413 21.1264 16.248C21.1421 15.1626 20.338 14.2646 19.329 14.2646C18.3278 14.2646 17.5316 15.1548 17.5316 16.248Z" fill="white"/>
</svg>
