<svg width="32" height="32" viewBox="0 0 32 32" fill="none" xmlns="http://www.w3.org/2000/svg">
<path fill-rule="evenodd" clip-rule="evenodd" d="M16 32C24.8366 32 32 24.8366 32 16C32 7.16344 24.8366 0 16 0C7.16344 0 0 7.16344 0 16C0 24.8366 7.16344 32 16 32ZM7 15C7 14.3021 7 13.6902 7.0132 13.1513L15.0287 17.6044C15.6328 17.9399 16.3672 17.9399 16.9713 17.6044L24.9868 13.1513C25 13.6902 25 14.3021 25 15V17C25 19.8284 25 21.2426 24.1213 22.1213C23.2426 23 21.8284 23 19 23H13C10.1716 23 8.75736 23 7.87868 22.1213C7 21.2426 7 19.8284 7 17V15ZM7.48564 11.1258C7.4074 11.0824 7.32584 11.0505 7.24297 11.0297C7.37294 10.5562 7.57245 10.1849 7.87868 9.87868C8.75736 9 10.1716 9 13 9H19C21.8284 9 23.2426 9 24.1213 9.87868C24.4276 10.1849 24.6271 10.5562 24.757 11.0297C24.6742 11.0505 24.5926 11.0824 24.5144 11.1258L16 15.856L7.48564 11.1258Z" fill="white"/>
</svg>
