<svg width="32" height="32" viewBox="0 0 32 32" fill="none" xmlns="http://www.w3.org/2000/svg">
<path fill-rule="evenodd" clip-rule="evenodd" d="M16 32C24.8366 32 32 24.8366 32 16C32 7.16344 24.8366 0 16 0C7.16344 0 0 7.16344 0 16C0 24.8366 7.16344 32 16 32ZM8.2663 23.9651V13.2955H11.5842V23.9651H8.2663ZM9.92524 11.8417C8.86003 11.8417 8 10.9817 8 9.92087C8 8.86003 8.86003 8 9.92524 8C10.9861 8 11.8461 8.86003 11.8461 9.92087C11.8461 10.9774 10.9861 11.8417 9.92524 11.8417ZM24 23.9651H20.6865V18.7787C20.6865 17.5432 20.6647 15.9498 18.9621 15.9498C17.2377 15.9498 16.9757 17.2988 16.9757 18.6914V23.9651H13.6666V13.2955H16.8447V14.7536H16.8884C17.3293 13.9154 18.412 13.0292 20.0229 13.0292C23.3801 13.0292 24 15.2382 24 18.1108V23.9651Z" fill="white"/>
</svg>
