<svg width="32" height="32" viewBox="0 0 32 32" fill="none" xmlns="http://www.w3.org/2000/svg">
<path fill-rule="evenodd" clip-rule="evenodd" d="M16 32C24.8366 32 32 24.8366 32 16C32 7.16344 24.8366 0 16 0C7.16344 0 0 7.16344 0 16C0 24.8366 7.16344 32 16 32ZM15.4033 24.4395L8.45067 17.9082C6.4945 16.0706 6.25695 13.0466 7.90219 10.9261L8.21154 10.5273C10.1797 7.99058 14.1304 8.41601 15.5133 11.3137C15.7087 11.723 16.2913 11.723 16.4867 11.3137C17.8696 8.41601 21.8203 7.99058 23.7885 10.5273L24.0978 10.9261C25.743 13.0466 25.5055 16.0706 23.5493 17.9082L16.5967 24.4395C16.3572 24.6644 16.2375 24.7769 16.0963 24.8046C16.0327 24.8171 15.9673 24.8171 15.9037 24.8046C15.7625 24.7769 15.6428 24.6644 15.4033 24.4395Z" fill="white"/>
</svg>
