<svg width="32" height="32" viewBox="0 0 32 32" fill="none" xmlns="http://www.w3.org/2000/svg">
<path fill-rule="evenodd" clip-rule="evenodd" d="M16 32C24.8365 32 32 24.8365 32 16C32 7.16345 24.8365 0 16 0C7.16345 0 0 7.16345 0 16C0 24.8365 7.16345 32 16 32ZM11.4142 8.58575C10.6332 7.80475 9.36682 7.80475 8.58578 8.58575C7.80475 9.36682 7.80475 10.6332 8.58578 11.4142L13.3382 16.1667L8.58578 20.9191C7.80475 21.7002 7.80475 22.9665 8.58578 23.7476C9.36682 24.5286 10.6332 24.5286 11.4142 23.7476L16.1667 18.9951L20.9191 23.7476C21.7002 24.5286 22.9665 24.5286 23.7476 23.7476C24.5286 22.9665 24.5286 21.7001 23.7476 20.9191L18.9951 16.1667L23.7476 11.4142C24.5286 10.6332 24.5286 9.36682 23.7476 8.58582C22.9665 7.80475 21.7002 7.80475 20.9191 8.58582L16.1667 13.3383L11.4142 8.58575Z" fill="black"/>
</svg>
