<svg width="32" height="32" viewBox="0 0 32 32" fill="none" xmlns="http://www.w3.org/2000/svg">
<path fill-rule="evenodd" clip-rule="evenodd" d="M16 32C24.8366 32 32 24.8366 32 16C32 7.16344 24.8366 0 16 0C7.16344 0 0 7.16344 0 16C0 24.8366 7.16344 32 16 32ZM11.4142 8.58578C10.6332 7.80474 9.36684 7.80474 8.58579 8.58578C7.80474 9.36683 7.80474 10.6332 8.58579 11.4142L13.3382 16.1667L8.58579 20.9191C7.80474 21.7002 7.80474 22.9665 8.58579 23.7475C9.36683 24.5286 10.6332 24.5286 11.4142 23.7475L16.1667 18.9951L20.9191 23.7475C21.7002 24.5286 22.9665 24.5286 23.7475 23.7475C24.5286 22.9665 24.5286 21.7002 23.7475 20.9191L18.9951 16.1667L23.7475 11.4142C24.5286 10.6332 24.5286 9.36684 23.7475 8.58579C22.9665 7.80474 21.7002 7.80474 20.9191 8.58579L16.1667 13.3382L11.4142 8.58578Z" fill="white"/>
</svg>
